<?xml version="1.0" encoding="UTF-8" standalone="no"?>
<svg width="57px" height="57px" viewBox="0 0 57 57" version="1.1" xmlns="http://www.w3.org/2000/svg" xmlns:xlink="http://www.w3.org/1999/xlink">
    <!-- Generator: Sketch 3.7.2 (28276) - http://www.bohemiancoding.com/sketch -->
    <title>Fill 144</title>
    <desc>Created with Sketch.</desc>
    <defs></defs>
    <g id="Page-1" stroke="none" stroke-width="1" fill="none" fill-rule="evenodd">
        <g id="outline" transform="translate(-36.000000, -395.000000)" fill="#5B5B58">
            <path d="M92.007,422.787 L65.469,422.787 L65.469,396.25 C65.469,395.836 65.133,395.5 64.719,395.5 C64.305,395.5 63.969,395.836 63.969,396.25 L63.969,422.787 L37.432,422.787 C37.018,422.787 36.682,423.123 36.682,423.537 C36.682,423.951 37.018,424.287 37.432,424.287 L63.969,424.287 L63.969,450.825 C63.969,451.239 64.305,451.575 64.719,451.575 C65.133,451.575 65.469,451.239 65.469,450.825 L65.469,424.287 L92.007,424.287 C92.421,424.287 92.757,423.951 92.757,423.537 C92.757,423.123 92.421,422.787 92.007,422.787" id="Fill-144"></path>
        </g>
    </g>
</svg>