<?xml version="1.0" encoding="UTF-8" standalone="no"?>
<svg width="32px" height="32px" viewBox="0 0 32 32" version="1.1" xmlns="http://www.w3.org/2000/svg" xmlns:xlink="http://www.w3.org/1999/xlink">
    <!-- Generator: Sketch 3.7.1 (28215) - http://www.bohemiancoding.com/sketch -->
    <title>Fill 214</title>
    <desc>Created with Sketch.</desc>
    <defs></defs>
    <g id="SketchAppSources.com" stroke="none" stroke-width="1" fill="none" fill-rule="evenodd">
        <g id="Material-Icons" transform="translate(-241.000000, -13808.000000)" fill="#000000">
            <g id="navigation" transform="translate(239.000000, 13804.000000)">
                <path d="M2,12 L10,12 L10,4 L2,4 L2,12 Z M14,36 L22,36 L22,28 L14,28 L14,36 Z M2,36 L10,36 L10,28 L2,28 L2,36 Z M2,24 L10,24 L10,16 L2,16 L2,24 Z M14,24 L22,24 L22,16 L14,16 L14,24 Z M26,12 L34,12 L34,4 L26,4 L26,12 Z M14,12 L22,12 L22,4 L14,4 L14,12 Z M26,24 L34,24 L34,16 L26,16 L26,24 Z M26,36 L34,36 L34,28 L26,28 L26,36 Z" id="Fill-214"></path>
            </g>
        </g>
    </g>
</svg>