<?xml version="1.0" encoding="UTF-8" standalone="no"?>
<svg width="732px" height="664px" viewBox="0 0 732 664" version="1.1" xmlns="http://www.w3.org/2000/svg" xmlns:xlink="http://www.w3.org/1999/xlink">
    <!-- Generator: Sketch 3.7.2 (28276) - http://www.bohemiancoding.com/sketch -->
    <title>Group</title>
    <desc>Created with Sketch.</desc>
    <defs></defs>
    <g id="Page" stroke="none" stroke-width="1" fill="none" fill-rule="evenodd">
        <g id="Artboard-1" transform="translate(-512.000000, -194.000000)">
            <g id="Group" transform="translate(528.000000, 203.000000)">
                <ellipse id="Oval-1" stroke="#FFFFFF" stroke-width="10" transform="translate(198.839225, 194.911330) rotate(-6.000000) translate(-198.839225, -194.911330) " cx="198.839225" cy="194.91133" rx="40.2508552" ry="40.270936"></ellipse>
                <ellipse id="Oval-1" stroke="#FFF8F8" stroke-width="5" fill="#000000" transform="translate(199.644242, 198.133005) rotate(-6.000000) translate(-199.644242, -198.133005) " cx="199.644242" cy="198.133005" rx="14.4903079" ry="14.4975369"></ellipse>
                <ellipse id="Oval-1" stroke="#FFFFFF" stroke-width="10" transform="translate(286.586089, 230.349754) rotate(-6.000000) translate(-286.586089, -230.349754) " cx="286.586089" cy="230.349754" rx="40.2508552" ry="40.270936"></ellipse>
                <path d="M287.391106,248.068966 C295.393882,248.068966 301.881414,241.578197 301.881414,233.571429 C301.881414,225.56466 295.393882,219.073892 287.391106,219.073892 C279.38833,219.073892 272.900798,225.56466 272.900798,233.571429 C272.900798,241.578197 279.38833,248.068966 287.391106,248.068966 Z" id="Oval-1" stroke="#FFF8F8" stroke-width="5" fill="#000000" transform="translate(287.391106, 233.571429) rotate(-6.000000) translate(-287.391106, -233.571429) "></path>
                <path d="M11.9628959,129.303729 C327.135936,85.1933666 372.410287,158.315115 450.527753,348.23888 C403.26329,304.945707 355.54114,303.759147 335.253151,303.759147 C355.54114,328.221603 360.676981,345.05362 357.905484,367.494638 C243.639881,290.656333 88.7805868,367.494634 88.7805868,367.494634 C88.7805868,367.494634 119.165781,280.961403 25.4738887,217.585178 C56.2990784,201.446374 78.339471,203.892875 110.203972,225.311758 C97.8688375,188.156338 78.8705027,162.289731 11.9628959,129.303729 Z" id="Path-1" stroke="#FFFFFF" stroke-width="10" transform="translate(231.245324, 242.173803) rotate(-6.000000) translate(-231.245324, -242.173803) "></path>
                <path d="M67.6214367,165.451451 C67.6214367,165.451451 127.644603,165.451451 132.570567,239.07161 C132.570567,282.258525 104.673641,352.394891 104.673641,352.394891 C104.673641,352.394891 176.478138,295.128586 219.570184,290.696043 C262.662231,286.2635 341.435892,307.049892 341.435892,307.049892" id="Path-3" stroke="#FFFFFF" stroke-width="10" transform="translate(204.528664, 258.923171) rotate(-6.000000) translate(-204.528664, -258.923171) "></path>
                <path d="M211.316991,339.279253 C211.31699,431.417675 200.066161,542.269584 152.862347,635.111542 C264.150507,635.111542 368.748251,629.775275 440.917061,635.111542 C513.085871,640.447809 511.350628,652.815124 578.247702,647.873922 C758.239849,613.484188 705.795452,484.504848 643.434139,361.230296 C611.907116,256.571849 705.795476,189.489935 705.795476,189.489935 C705.795476,189.489935 623.838433,149.158394 569.941099,173.325084 C516.043765,197.491775 485.521981,253.304187 485.521981,253.304187 C485.521981,253.304187 447.578794,338.473835 511.350629,448.275651 C551.67064,524.948635 467.712083,560.874171 429.328922,575.47563 C429.328922,472.9611 371.081871,383.816733 333.055173,338.473835 C293.647242,326.243172 246.504987,328.44646 211.316991,339.279253 Z" id="Path-4" stroke="#FFFFFF" stroke-width="10"></path>
                <path d="M342.479484,633.770291 C342.479484,633.770291 299.733182,585.815099 306.592413,552.411189 C313.451643,519.007278 366.375413,517.399003 366.375413,517.399003" id="Path-5" stroke="#FFFFFF" stroke-width="10"></path>
                <path d="M303.327334,653.485352 L393.918631,653.485354 C393.918631,653.485354 404.009941,618.485512 376.910618,613.264541 C349.811295,608.04357 308.928136,613.750019 303.327334,653.485352 Z" id="Path-6" fill="#FFFFFF"></path>
                <path d="M111.897377,649.143271 L202.488674,649.143272 C202.488674,649.143272 212.579984,614.14343 185.480661,608.922459 C158.381338,603.701489 117.498179,609.407938 111.897377,649.143271 Z" id="Path-6" fill="#FFFFFF"></path>
                <path d="M108.677309,624.980709 L163.599047,624.980709 L178.235507,584.759898 C178.235507,584.759898 114.27811,585.245376 108.677309,624.980709 Z" id="Path-6" fill="#FFFFFF"></path>
                <path d="M140.830092,119.554665 L217.366151,4.98129995 L254.573514,132.171979 C235.806,127.067433 197.701806,119.554669 140.830092,119.554665 Z" id="Path-9" stroke="#FFFFFF" stroke-width="10" transform="translate(197.701803, 68.576639) rotate(-5.000000) translate(-197.701803, -68.576639) "></path>
                <path d="M281.5593,150.664791 L358.095359,36.0914266 L393.086979,165.752079 C376.506631,156.680181 318.630681,145.505537 281.5593,150.664791 Z" id="Path-9" stroke="#FFFFFF" stroke-width="10" transform="translate(337.323139, 100.921753) rotate(21.000000) translate(-337.323139, -100.921753) "></path>
                <polygon id="Path-11" stroke="#FFFFFF" stroke-width="10" points="186.711716 121.477652 207.461821 71.5472319 225.329281 121.070343"></polygon>
                <polygon id="Path-11" stroke="#FFFFFF" stroke-width="10" transform="translate(334.070470, 124.837131) rotate(28.000000) translate(-334.070470, -124.837131) " points="314.761688 149.802342 335.511792 99.8719212 353.379253 149.395032"></polygon>
                <polygon id="Path-13" fill="#FFFFFF" points="640.729659 306.509777 620.64875 325.648983 624.31137 294.372936 596.413497 318.215084 600.156011 287.789182 572.625678 302.203136 577.176781 273.650084 552.100978 287.789181 557.070754 255.57032 533.238193 268.673916 533.238193 236.566913 512.668746 250.706011 516.075681 214.824535 562.571068 174.264117 620.648753 164.171154 662.778406 173.69523 700.216333 188.185887 676.11737 214.824535 647.72232 261.381206"></polygon>
                <path d="M76.3044698,394.281634 C62.7369597,388.935082 69.034286,368.19405 84.7643078,354.363466 C96.5014185,344.043639 118.026846,334.239031 129.296489,338.680062 C141.299279,343.410004 135.284513,364.060913 120.339734,377.189029 C105.394955,390.317144 89.8719798,399.628186 76.3044698,394.281634 Z" id="Path-2" fill="#FFFFFF" transform="translate(102.275482, 366.700282) rotate(-6.000000) translate(-102.275482, -366.700282) "></path>
            </g>
        </g>
    </g>
</svg>